How to Train Your Dragon.2010 [Eng_Ita] BRRip 720p.H264 MarGelaTu.mp4

- http://www.imdb.com/title/tt0892769/


Format : MPEG-4
Format profile : Base Media / Version 2
Codec ID : mp42
File size : 2.47 GiB
Duration : 1h 37mn
Overall bit rate : 3 613 Kbps
Source: [BluRay Rip 1080p - ITA-ENG-SPA AC3-SUB] Dragon Trainer (2010) 8.84 GB

Video #1
ID : 1
Format : AVC
Format/Info : Advanced Video Codec
Format profile : High@L4.0
Format settings, CABAC : Yes
Format settings, ReFrames : 8 frames
Codec ID : avc1
Codec ID/Info : Advanced Video Coding
Duration : 1h 37mn
Bit rate mode : Variable
Bit rate : 3 260 Kbps
Width : 1 280 pixels
Height : 544 pixels
Display aspect ratio : 2.35:1
Frame rate mode : Variable
Frame rate : 23.976 fps
Minimum frame rate : 23.974 fps
Maximum frame rate : 23.981 fps
Resolution : 24 bits
Colorimetry : 4:2:0
Scan type : Progressive
Bits/(Pixel*Frame) : 0.195
Stream size : 2.23 GiB (90%)
Writing library : x264 core 79

Audio #2
ID : 2
Format : AAC
Format/Info : Advanced Audio Codec
Format version : Version 4
Format profile : LC
Format settings, SBR : No
Codec ID : 40
Duration : 1h 37mn
Bit rate mode : Variable
Bit rate : 192 Kbps
Maximum bit rate : 250 Kbps
Channel(s) : 6 channels
Channel positions : Front: L C R, Rear: L R, LFE
Sampling rate : 48.0 KHz
Resolution : 16 bits
Stream size : 135 MiB (5%)
Language : Italian

Audio #3
ID : 3
Format : AAC
Format/Info : Advanced Audio Codec
Format version : Version 4
Format profile : LC
Format settings, SBR : No
Codec ID : 40
Duration : 1h 37mn
Bit rate mode : Variable
Bit rate : 160 Kbps
Maximum bit rate : 226 Kbps
Channel(s) : 2 channels
Channel positions : L R
Sampling rate : 48.0 KHz
Resolution : 16 bits
Stream size : 112 MiB (4%)
Language : English
Enjoy and send, send send ...